<svg data-v-6805eed4="" version="1.0" xmlns="http://www.w3.org/2000/svg" xmlns:xlink="http://www.w3.org/1999/xlink" width="100%" height="100%" viewBox="0 0 340.000000 250.000000" preserveAspectRatio="xMidYMid meet" color-interpolation-filters="sRGB" style="margin: auto;"> <rect data-v-6805eed4="" x="0" y="0" width="100%" height="100%" fill="#fff" fill-opacity="1" class="background"></rect> <rect data-v-6805eed4="" x="0" y="0" width="100%" height="100%" fill="url(#watermark)" fill-opacity="1" class="watermarklayer"></rect> <g data-v-6805eed4="" fill="#000000" class="icon-text-wrapper icon-svg-group iconsvg" transform="translate(67.73999786376953,95)"><g class="iconsvg-imagesvg" transform="translate(0,0)"><g><rect fill="#000000" fill-opacity="0" stroke-width="2" x="0" y="0" width="60" height="60" class="image-rect"></rect> <svg filter="url(#colors6320065646)" x="0" y="0" width="60" height="60" filtersec="colorsf2599935744" class="image-svg-svg primary" style="overflow: visible;"><svg fill="#000000" xmlns="http://www.w3.org/2000/svg" data-name="Layer 1" viewBox="5 5 90 90" x="0px" y="0px"><title>B__36</title><path d="M5,43.153A1.84706,1.84706,0,0,0,6.84705,45H43.153A1.847,1.847,0,0,0,45,43.153V6.847A1.847,1.847,0,0,0,43.153,5H6.84705A1.847,1.847,0,0,0,5,6.847ZM10,10H40V40H10ZM93.153,5H56.847A1.847,1.847,0,0,0,55,6.847V43.153A1.847,1.847,0,0,0,56.847,45H93.153A1.847,1.847,0,0,0,95,43.153V6.847A1.847,1.847,0,0,0,93.153,5ZM90,40H60V10H90ZM5,93.153A1.84707,1.84707,0,0,0,6.84705,95H43.153A1.847,1.847,0,0,0,45,93.153V56.847A1.847,1.847,0,0,0,43.153,55H6.84705A1.847,1.847,0,0,0,5,56.847ZM10,60H40V90H10Zm83.153-5H56.847A1.847,1.847,0,0,0,55,56.847V93.153A1.847,1.847,0,0,0,56.847,95H93.153A1.847,1.847,0,0,0,95,93.153V56.847A1.847,1.847,0,0,0,93.153,55ZM90,90H60V60H90Z"></path><desc>Created with Snap</desc><defs></defs></svg></svg> <defs><filter id="colors6320065646"><feColorMatrix type="matrix" values="0 0 0 0 0  0 0 0 0 0  0 0 0 0 0  0 0 0 1 0" class="icon-fecolormatrix"></feColorMatrix></filter> <filter id="colorsf2599935744"><feColorMatrix type="matrix" values="0 0 0 0 0.99609375  0 0 0 0 0.99609375  0 0 0 0 0.99609375  0 0 0 1 0" class="icon-fecolormatrix"></feColorMatrix></filter> <filter id="colorsb3382383239"><feColorMatrix type="matrix" values="0 0 0 0 0  0 0 0 0 0  0 0 0 0 0  0 0 0 1 0" class="icon-fecolormatrix"></feColorMatrix></filter></defs></g></g> <g transform="translate(67,1.6820011138916016)"><g data-gra="path-name" fill-rule="" class="tp-name iconsvg-namesvg" transform="translate(0,0)"><g transform="scale(1)"><g><path d="M2.94-39C4.38-37.86 4.32-36.78 4.32-35.04L4.32-4.98C4.32-2.34 4.86 0 7.68 0L14.82 0C13.38-1.14 13.44-2.22 13.44-3.96L13.44-14.4 18.42-14.4C28.68-14.4 35.58-17.76 35.58-26.7 35.58-36.72 27.12-39 18.72-39ZM16.86-37.56C23.04-37.56 25.86-33 25.86-26.58 25.86-20.16 22.44-16.44 16.74-16.44L13.44-16.44 13.44-34.02C13.44-35.34 13.32-36.66 12.78-37.56ZM39.9-4.38C39.9-1.68 40.5 0 43.38 0L49.92 0C48.42-1.2 48.54-2.28 48.54-4.08L48.54-37.62C48.54-40.32 47.88-42 45-42L38.46-42C39.96-40.8 39.9-39.72 39.9-37.92ZM52.38-6.18C52.38-3.3 54.96 0.48 61.74 0.48 65.76 0.48 68.46-1.56 70.08-4.14L70.08-4.08C70.14-1.56 71.1 0 75.24 0L80.04 0C78.54-1.2 78.66-2.28 78.66-4.02L78.66-19.86C78.66-25.5 71.94-27.66 66.48-27.66 61.08-27.66 56.4-26.52 55.2-23.76 53.76-20.64 56.52-17.64 61.5-17.46 61.44-17.46 62.58-26.94 66.48-26.94 69.54-26.94 70.08-22.32 70.08-19.62L70.08-16.68C65.7-13.5 52.38-12.66 52.38-6.18ZM61.44-6.84C61.44-11.82 67.38-13.02 70.08-15.06L70.08-10.98C70.08-7.32 68.88-2.46 64.8-2.46 63.18-2.46 61.44-3.96 61.44-6.84ZM82.74-27.18C84.24-26.04 84.18-24.9 84.18-23.1L84.18-4.38C84.18-1.68 84.78 0 87.66 0L94.2 0C92.7-1.2 92.82-2.28 92.82-4.08L92.82-16.56C93.18-22.14 95.1-25.68 98.1-25.68 100.68-25.68 102.42-24.3 102.42-17.1L102.42-4.38C102.42-1.68 103.02 0 105.9 0L112.44 0C111-1.2 111.06-2.28 111.06-4.02L111.06-17.28C111.06-25.02 105.24-27.66 99.84-27.66 96.6-27.66 94.26-26.28 92.7-23.88L92.7-24.06C92.46-25.98 91.68-27.18 89.28-27.18ZM116.28 0L139.92 0 139.92-5.28C136.02-4.32 130.92-3.42 125.7-3L140.46-27.18 115.44-27.18 115.44-21.9C119.82-23.46 123.6-24.48 128.58-25.32L115.44-2.94C114.24-1.56 114.66 0 116.28 0Z" transform="translate(-2.940000057220459, 42)"></path></g> <!----> <!----> <!----> <!----> <!----> <!----> <!----></g></g> <g data-gra="path-slogan" fill-rule="" class="tp-slogan iconsvg-slogansvg" fill="#000000" transform="translate(0.720001220703125,48.47999954223633)"><!----> <!----> <g transform="scale(1, 1)"><g transform="scale(1)"><path d="M1.10-1.72L0.50-1.02C0.85-0.66 1.26-0.38 1.73-0.17C2.20 0.04 2.71 0.14 3.26 0.14C3.68 0.14 4.05 0.09 4.38-0.03C4.71-0.15 4.99-0.31 5.22-0.51C5.45-0.71 5.63-0.95 5.75-1.22C5.88-1.50 5.94-1.79 5.94-2.10C5.94-2.39 5.90-2.64 5.81-2.86C5.73-3.08 5.62-3.27 5.47-3.44C5.33-3.60 5.16-3.75 4.96-3.87C4.76-3.99 4.54-4.10 4.32-4.20L3.20-4.68C3.04-4.74 2.89-4.81 2.74-4.89C2.58-4.97 2.44-5.05 2.32-5.15C2.19-5.25 2.09-5.37 2.01-5.50C1.93-5.63 1.90-5.80 1.90-5.99C1.90-6.35 2.03-6.63 2.30-6.83C2.57-7.04 2.92-7.14 3.36-7.14C3.73-7.14 4.06-7.07 4.35-6.94C4.64-6.81 4.91-6.63 5.15-6.40L5.69-7.04C5.41-7.33 5.07-7.57 4.67-7.75C4.27-7.93 3.83-8.02 3.36-8.02C3-8.02 2.67-7.96 2.37-7.86C2.07-7.76 1.81-7.61 1.59-7.42C1.37-7.23 1.20-7.01 1.07-6.76C0.95-6.50 0.89-6.22 0.89-5.93C0.89-5.64 0.94-5.39 1.03-5.17C1.13-4.95 1.25-4.76 1.40-4.60C1.56-4.44 1.73-4.30 1.92-4.19C2.11-4.08 2.30-3.98 2.48-3.90L3.61-3.41C3.80-3.32 3.97-3.24 4.13-3.16C4.29-3.08 4.43-2.99 4.54-2.89C4.66-2.79 4.75-2.67 4.82-2.53C4.89-2.39 4.92-2.22 4.92-2.02C4.92-1.63 4.78-1.32 4.49-1.09C4.20-0.85 3.80-0.73 3.28-0.73C2.87-0.73 2.47-0.82 2.09-1.00C1.71-1.18 1.38-1.42 1.10-1.72ZM8.50-7.03L8.50 0L9.51 0L9.51-7.03L11.88-7.03L11.88-7.87L6.12-7.87L6.12-7.03ZM15.79-3.20L13.42-3.20L13.80-4.40C13.94-4.84 14.08-5.28 14.20-5.72C14.33-6.15 14.46-6.60 14.58-7.06L14.62-7.06C14.75-6.60 14.88-6.15 15.01-5.72C15.14-5.28 15.27-4.84 15.42-4.40ZM16.04-2.40L16.78 0L17.85 0L15.19-7.87L14.06-7.87L11.40 0L12.42 0L13.17-2.40ZM19.69-3.05L19.69 0L20.70 0L20.70-3.05L23.06-7.87L22.02-7.87L21.01-5.65C20.89-5.36 20.76-5.08 20.63-4.80C20.49-4.52 20.36-4.23 20.22-3.94L20.17-3.94C20.04-4.23 19.91-4.52 19.79-4.80C19.67-5.08 19.54-5.36 19.42-5.65L18.40-7.87L17.33-7.87ZM28.70 0.14C29.20 0.14 29.65 0.05 30.06-0.14C30.47-0.34 30.83-0.61 31.13-0.97C31.43-1.32 31.66-1.75 31.83-2.26C31.99-2.77 32.07-3.34 32.07-3.97C32.07-4.60 31.99-5.16 31.83-5.66C31.66-6.16 31.43-6.58 31.13-6.93C30.83-7.28 30.47-7.55 30.06-7.73C29.65-7.92 29.20-8.02 28.70-8.02C28.20-8.02 27.75-7.92 27.34-7.74C26.93-7.56 26.57-7.29 26.28-6.94C25.98-6.59 25.75-6.17 25.59-5.67C25.42-5.17 25.34-4.60 25.34-3.97C25.34-3.34 25.42-2.77 25.59-2.26C25.75-1.75 25.98-1.32 26.28-0.97C26.57-0.61 26.93-0.34 27.34-0.14C27.75 0.05 28.20 0.14 28.70 0.14ZM28.70-0.73C28.35-0.73 28.03-0.81 27.75-0.96C27.46-1.11 27.22-1.33 27.01-1.61C26.81-1.90 26.65-2.24 26.54-2.63C26.43-3.03 26.37-3.48 26.37-3.97C26.37-4.46 26.43-4.90 26.54-5.29C26.65-5.68 26.81-6.02 27.01-6.29C27.22-6.56 27.46-6.77 27.75-6.92C28.03-7.07 28.35-7.14 28.70-7.14C29.05-7.14 29.37-7.07 29.65-6.92C29.94-6.77 30.18-6.56 30.39-6.29C30.59-6.02 30.75-5.68 30.86-5.29C30.97-4.90 31.03-4.46 31.03-3.97C31.03-3.48 30.97-3.03 30.86-2.63C30.75-2.24 30.59-1.90 30.39-1.61C30.18-1.33 29.94-1.11 29.65-0.96C29.37-0.81 29.05-0.73 28.70-0.73ZM33.38-7.87L33.38 0L34.33 0L34.33-4.12C34.33-4.53 34.32-4.95 34.29-5.36C34.26-5.77 34.23-6.18 34.20-6.58L34.25-6.58L35.10-4.96L37.95 0L38.99 0L38.99-7.87L38.04-7.87L38.04-3.80C38.04-3.39 38.05-2.97 38.08-2.54C38.11-2.11 38.13-1.70 38.16-1.30L38.11-1.30L37.26-2.93L34.41-7.87ZM44.44-7.03L44.44 0L45.45 0L45.45-7.03L47.83-7.03L47.83-7.87L42.07-7.87L42.07-7.03ZM49.86-4.14L49.86-7.07L51.18-7.07C51.79-7.07 52.27-6.96 52.59-6.76C52.92-6.55 53.09-6.18 53.09-5.66C53.09-5.15 52.92-4.77 52.59-4.52C52.27-4.27 51.79-4.14 51.18-4.14ZM53.18 0L54.31 0L52.32-3.43C52.85-3.57 53.28-3.82 53.60-4.19C53.92-4.56 54.08-5.05 54.08-5.66C54.08-6.07 54.01-6.42 53.88-6.70C53.74-6.98 53.55-7.20 53.31-7.38C53.06-7.56 52.77-7.68 52.43-7.76C52.09-7.83 51.72-7.87 51.32-7.87L48.86-7.87L48.86 0L49.86 0L49.86-3.32L51.29-3.32ZM58.68-3.20L56.32-3.20L56.69-4.40C56.83-4.84 56.97-5.28 57.10-5.72C57.23-6.15 57.35-6.60 57.47-7.06L57.52-7.06C57.65-6.60 57.77-6.15 57.90-5.72C58.03-5.28 58.17-4.84 58.31-4.40ZM58.93-2.40L59.68 0L60.75 0L58.08-7.87L56.95-7.87L54.29 0L55.31 0L56.07-2.40ZM60.91-3.94C60.91-3.30 60.99-2.72 61.16-2.21C61.34-1.71 61.58-1.28 61.88-0.93C62.19-0.58 62.56-0.32 62.98-0.13C63.40 0.05 63.85 0.14 64.35 0.14C64.85 0.14 65.30 0.04 65.69-0.16C66.09-0.36 66.44-0.64 66.75-1.00L66.19-1.61C65.93-1.33 65.66-1.11 65.38-0.96C65.09-0.81 64.76-0.73 64.37-0.73C64.00-0.73 63.66-0.81 63.36-0.96C63.06-1.11 62.81-1.33 62.60-1.61C62.39-1.89 62.23-2.23 62.11-2.62C62.00-3.02 61.94-3.46 61.94-3.96C61.94-4.45 62.00-4.89 62.12-5.28C62.24-5.67 62.41-6.01 62.62-6.28C62.84-6.56 63.10-6.77 63.40-6.92C63.71-7.07 64.05-7.14 64.42-7.14C64.76-7.14 65.05-7.07 65.30-6.94C65.56-6.81 65.79-6.63 65.99-6.41L66.56-7.04C66.33-7.30 66.03-7.53 65.67-7.72C65.31-7.92 64.89-8.02 64.41-8.02C63.91-8.02 63.44-7.92 63.01-7.73C62.58-7.55 62.21-7.28 61.90-6.92C61.59-6.57 61.35-6.14 61.17-5.64C60.99-5.14 60.91-4.57 60.91-3.94ZM67.83-7.87L67.83 0L68.83 0L68.83-2.50L70.19-4.09L72.54 0L73.65 0L70.81-4.87L73.27-7.87L72.14-7.87L68.87-3.92L68.83-3.92L68.83-7.87ZM75.64-7.87L77.31 0L78.50 0L79.66-4.74C79.73-5.04 79.79-5.34 79.86-5.63C79.93-5.93 79.99-6.22 80.06-6.53L80.11-6.53C80.17-6.22 80.23-5.93 80.29-5.63C80.35-5.34 80.42-5.04 80.49-4.74L81.68 0L82.88 0L84.51-7.87L83.55-7.87L82.72-3.59C82.64-3.16 82.57-2.74 82.49-2.32C82.42-1.90 82.35-1.48 82.28-1.04L82.23-1.04C82.13-1.48 82.04-1.90 81.94-2.33C81.85-2.75 81.75-3.17 81.65-3.59L80.56-7.87L79.65-7.87L78.56-3.59C78.47-3.16 78.38-2.74 78.28-2.32C78.19-1.90 78.09-1.48 78.01-1.04L77.96-1.04C77.89-1.48 77.81-1.90 77.73-2.32C77.65-2.73 77.57-3.16 77.50-3.59L76.67-7.87ZM85.50-7.87L85.50 0L86.49 0L86.49-7.87ZM89.91-7.03L89.91 0L90.91 0L90.91-7.03L93.29-7.03L93.29-7.87L87.53-7.87L87.53-7.03ZM94.33-7.87L94.33 0L95.32 0L95.32-3.71L98.98-3.71L98.98 0L99.99 0L99.99-7.87L98.98-7.87L98.98-4.57L95.32-4.57L95.32-7.87ZM103.81-7.87L103.81 0L104.81 0L104.81-3.12L106.22-3.12C106.66-3.12 107.05-3.17 107.41-3.27C107.76-3.37 108.07-3.52 108.32-3.72C108.58-3.92 108.78-4.17 108.92-4.48C109.06-4.78 109.13-5.14 109.13-5.56C109.13-5.99 109.06-6.35 108.92-6.65C108.78-6.94 108.58-7.18 108.33-7.36C108.08-7.54 107.77-7.67 107.41-7.75C107.05-7.83 106.66-7.87 106.22-7.87ZM106.10-3.94L104.81-3.94L104.81-7.07L106.10-7.07C106.78-7.07 107.29-6.96 107.63-6.74C107.96-6.52 108.13-6.12 108.13-5.56C108.13-5.00 107.97-4.59 107.63-4.33C107.30-4.07 106.79-3.94 106.10-3.94ZM110.34-7.87L110.34 0L114.78 0L114.78-0.85L111.34-0.85L111.34-7.87ZM119.18-3.20L116.82-3.20L117.19-4.40C117.33-4.84 117.47-5.28 117.60-5.72C117.72-6.15 117.85-6.60 117.97-7.06L118.02-7.06C118.14-6.60 118.27-6.15 118.40-5.72C118.53-5.28 118.66-4.84 118.81-4.40ZM119.43-2.40L120.18 0L121.24 0L118.58-7.87L117.45-7.87L114.79 0L115.81 0L116.56-2.40ZM121.98-7.87L121.98 0L122.93 0L122.93-4.12C122.93-4.53 122.91-4.95 122.89-5.36C122.86-5.77 122.83-6.18 122.80-6.58L122.84-6.58L123.70-4.96L126.55 0L127.58 0L127.58-7.87L126.64-7.87L126.64-3.80C126.64-3.39 126.65-2.97 126.68-2.54C126.71-2.11 126.73-1.70 126.76-1.30L126.71-1.30L125.86-2.93L123.01-7.87ZM128.82-0.60L128.82 0L134.25 0L134.25-0.85L130.06-0.85L134.21-7.28L134.21-7.87L129.20-7.87L129.20-7.03L132.96-7.03ZM135.15-0.60C135.15-0.38 135.22-0.21 135.36-0.07C135.50 0.07 135.67 0.14 135.87 0.14C136.06 0.14 136.23 0.07 136.37-0.07C136.51-0.21 136.58-0.38 136.58-0.60C136.58-0.83 136.51-1.02 136.37-1.16C136.23-1.30 136.06-1.37 135.87-1.37C135.67-1.37 135.50-1.30 135.36-1.16C135.22-1.02 135.15-0.83 135.15-0.60Z" transform="translate(-0.504, 8.016)"></path></g></g></g></g></g><defs v-gra="od"></defs></svg>